<svg width="80" height="90" viewBox="0 0 80 90" fill="none" xmlns="http://www.w3.org/2000/svg">
<g clip-path="url(#clip0_645_441)" filter="url(#filter0_d_645_441)">
<path d="M52.3197 82H27.6799C26.6731 81.3978 26.346 80.7871 26.5747 79.9479C26.7863 79.1791 27.4276 78.8011 28.537 78.799C29.593 78.799 30.6489 78.799 31.7391 78.799C32.2885 75.8094 32.8229 72.9138 33.3765 69.8986C32.9404 69.8986 32.6283 69.8986 32.3163 69.8986C25.9997 69.8986 19.6832 69.9029 13.3666 69.8922C12.6228 69.8922 11.8639 69.873 11.1414 69.7235C6.83207 68.8416 4.01046 65.3267 4.00619 60.8444C3.9955 49.7467 3.99978 38.6489 4.00405 27.5511C4.00405 22.0247 7.76405 18.2664 13.2875 18.2578C14.025 18.2578 14.7603 18.2578 15.5512 18.2578C15.5512 17.8371 15.5512 17.5211 15.5512 17.2051C15.5512 13.1499 15.5406 9.09474 15.5555 5.03958C15.5641 2.60307 16.8915 0.834948 19.1637 0.158021C19.2856 0.121719 19.3989 0.0533854 19.5164 0C33.1713 0 46.824 0 60.4788 0C63.6809 1.3026 64.4462 2.46 64.4462 6.00052C64.4462 9.78875 64.4462 13.577 64.4462 17.3652C64.4462 17.6449 64.4462 17.9268 64.4462 18.2578C65.3333 18.2578 66.1007 18.2557 66.8702 18.2578C72.1927 18.2813 75.987 22.0674 75.9912 27.391C75.9998 38.5144 75.9976 49.6399 75.9848 60.7633C75.9848 61.5299 75.9207 62.3157 75.7454 63.061C74.7707 67.2251 71.3228 69.8794 66.8723 69.8901C60.4767 69.9071 54.0789 69.8943 47.6833 69.8943C47.3712 69.8943 47.0591 69.8943 46.6209 69.8943C47.181 72.9309 47.7196 75.8479 48.2626 78.7947C49.5173 78.7947 50.6887 78.7712 51.858 78.8011C52.9011 78.8268 53.5467 79.5848 53.4612 80.5778C53.3992 81.3188 52.884 81.6733 52.3176 81.9936L52.3197 82ZM18.8004 11.5099V58.3011H61.1864V11.5099H18.8004ZM72.7271 61.6559H7.21469C7.31516 62.0872 7.37073 62.4268 7.47334 62.7556C8.23859 65.2199 10.3398 66.6912 13.1379 66.6933C31.0508 66.6976 48.9637 66.6955 66.8766 66.6933C67.116 66.6933 67.3554 66.6848 67.5948 66.6656C70.3224 66.4648 72.398 64.464 72.7271 61.6559ZM15.4893 58.3246V29.8489H7.24676V58.3246H15.4893ZM72.7421 58.3182V29.8424H64.4911V58.3182H72.7421ZM18.7747 8.17865H61.1864C61.2163 8.04839 61.2377 7.995 61.2377 7.94375C61.2419 7.08958 61.2484 6.23755 61.2462 5.38339C61.2441 3.71562 60.7225 3.20312 59.0317 3.20312C46.3473 3.20312 33.6629 3.20312 20.9785 3.20312C20.7648 3.20312 20.551 3.19458 20.3394 3.20953C19.4865 3.27146 18.8431 3.80104 18.7918 4.65307C18.7234 5.81474 18.7747 6.98495 18.7747 8.17865ZM44.9985 78.7627C44.4727 75.9055 43.9682 73.1295 43.4317 70.3598C43.3975 70.1805 43.1067 69.9221 42.9336 69.9199C40.858 69.8901 38.7824 69.9007 36.6406 69.9007C36.0912 72.8711 35.5504 75.7923 34.9989 78.7648H45.0006L44.9985 78.7627ZM15.4914 26.5603V21.5165C10.5685 21.0552 7.29592 23.0817 7.3173 26.5603H15.4914ZM64.4825 26.5539H72.7079C72.5839 24.2348 70.8568 22.1037 68.5525 21.6638C67.24 21.414 65.8698 21.4716 64.4846 21.3883V26.5539H64.4825Z" fill="#FD6F00"/>
<path d="M20.7693 38.5015C20.7693 34.314 20.7672 30.1264 20.7693 25.9389C20.7714 23.2632 22.2549 21.7748 24.9141 21.7706C27.2055 21.7663 29.497 21.762 31.7885 21.7706C34.1484 21.7812 35.7345 23.2867 35.7409 25.6527C35.7665 34.2414 35.7665 42.83 35.7409 51.4187C35.7345 53.7869 34.1655 55.2881 31.7949 55.303C29.4243 55.318 27.0516 55.3222 24.6811 55.303C22.3169 55.2838 20.78 53.7484 20.7736 51.3845C20.7586 47.0902 20.7693 42.7959 20.7693 38.5015ZM32.5559 38.6019C32.5559 34.4165 32.5495 30.2289 32.5623 26.0435C32.5644 25.3517 32.4319 24.9438 31.5961 24.9587C29.3602 24.9993 27.12 24.9908 24.8841 24.963C24.1787 24.9545 23.9586 25.2385 23.9607 25.9154C23.9735 34.3418 23.9757 42.7681 23.9607 51.1923C23.9607 51.9034 24.245 52.1212 24.9141 52.1148C27.0709 52.0913 29.2298 52.1084 31.3866 52.1063C32.4875 52.1063 32.5538 52.038 32.5559 50.9233C32.558 46.8169 32.5559 42.7105 32.5559 38.604V38.6019Z" fill="black"/>
<path d="M48.7886 21.7705C50.9198 21.7705 53.0531 21.762 55.1843 21.7727C57.4928 21.7855 59.0618 23.3016 59.0918 25.6143C59.1281 28.307 59.126 31.0019 59.0918 33.6968C59.064 35.9774 57.5613 37.5256 55.2719 37.5491C50.9284 37.5961 46.5848 37.5982 42.2412 37.5491C39.892 37.5235 38.4064 35.9112 38.4 33.5452C38.3936 30.9571 38.3936 28.3711 38.4 25.783C38.4064 23.3401 39.9562 21.7812 42.3909 21.7705C44.522 21.762 46.6553 21.7705 48.7865 21.7705H48.7886ZM41.6 29.3406C42.3032 28.7661 42.859 28.2814 43.4468 27.8372C44.8854 26.746 46.6853 26.7631 48.1003 27.8757C48.6027 28.2707 49.12 28.6594 49.5624 29.1164C50.1417 29.7143 50.6141 29.6395 51.1827 29.0993C52.4311 27.9077 53.8739 27.6878 55.46 28.3561C55.5754 28.4053 55.6994 28.4309 55.9004 28.4928C55.9004 27.5041 55.9046 26.5731 55.9004 25.6442C55.8961 25.1295 55.5947 24.9672 55.118 24.9694C50.8835 24.9758 46.6489 24.9758 42.4144 24.9694C41.8372 24.9694 41.5936 25.2192 41.6021 25.7894C41.6171 26.9083 41.6064 28.0273 41.6064 29.3406H41.6ZM48.7181 34.3631C50.7937 34.3631 52.8714 34.3823 54.947 34.3439C55.2548 34.3374 55.802 34.0855 55.817 33.9104C55.8683 33.3039 56.2338 32.5907 55.5049 32.0953C54.4375 31.3706 53.5711 31.2781 52.9056 31.8177C51.2725 33.148 49.4342 33.148 47.8118 31.8155C47.3586 31.444 46.8947 31.0831 46.4779 30.6731C45.9863 30.1905 45.5716 30.1691 45.0415 30.6453C44.1116 31.4803 43.1134 32.2405 42.1771 33.0711C41.9334 33.2868 41.8116 33.6434 41.6342 33.9339C41.9719 34.0769 42.3075 34.3396 42.6495 34.346C44.6717 34.3844 46.6959 34.3652 48.7181 34.3652V34.3631Z" fill="black"/>
<path d="M48.7459 55.3073C46.6404 55.3073 44.5349 55.3159 42.4315 55.3052C39.9327 55.2924 38.4064 53.7527 38.4 51.2543C38.3957 48.6683 38.3915 46.0802 38.4 43.4942C38.4086 41.141 39.9455 39.5522 42.2819 39.5415C46.5976 39.5181 50.9155 39.5181 55.2313 39.5415C57.51 39.5544 59.0554 41.0748 59.0875 43.349C59.126 46.0695 59.126 48.79 59.0875 51.5106C59.0533 53.7826 57.5014 55.2838 55.2185 55.3052C53.0595 55.3265 50.9027 55.3095 48.7438 55.3116L48.7459 55.3073ZM53.7564 52.1063C54.1882 52.1063 54.5067 52.1063 54.8252 52.1063C55.8213 52.0978 55.9004 52.0231 55.9004 50.9938C55.9046 48.5658 55.8854 46.1357 55.9111 43.7077C55.9196 42.9881 55.6588 42.719 54.9278 42.7233C50.8215 42.7468 46.7152 42.7468 42.611 42.7233C41.8501 42.719 41.5722 42.9838 41.585 43.7505C41.6192 45.9649 41.5978 48.1793 41.5978 50.3959C41.5978 52.2067 41.6213 52.2281 43.434 52.0957C43.5088 52.0893 43.5815 52.0529 43.7354 52.006C43.7974 50.319 43.5088 48.5359 44.8576 47.1159C46.2236 45.6766 47.9614 45.7748 49.6992 45.8197C50.721 45.8453 51.6145 46.2062 52.3926 46.881C53.9958 48.2754 53.7585 50.1759 53.7564 52.1063ZM50.5521 52.0764C50.5521 51.3184 50.5735 50.6308 50.5457 49.9453C50.5201 49.3388 50.1353 48.963 49.5603 49.0377C48.6903 49.1531 47.4826 48.4548 47.0487 49.7189C46.8092 50.4172 47.0059 51.2671 47.0059 52.0764H50.5543H50.5521Z" fill="black"/>
<path d="M43.1198 18.828C38.4556 18.828 33.7914 18.8323 29.1272 18.8259C27.9024 18.8259 27.2162 18.2664 27.1799 17.2927C27.1499 16.4577 27.6865 15.7915 28.5137 15.6719C28.8279 15.627 29.1507 15.6292 29.4714 15.6292C38.5881 15.6292 47.7027 15.6292 56.8195 15.6292C57.138 15.6292 57.4629 15.6292 57.775 15.6761C58.5381 15.7936 59.0576 16.3958 59.0853 17.1581C59.1153 17.9653 58.6194 18.6209 57.8284 18.7661C57.4907 18.828 57.1401 18.8259 56.7939 18.8259C52.2365 18.8302 47.6771 18.828 43.1198 18.8259V18.828Z" fill="#FD6F00"/>
<path d="M20.7778 17.2243C20.7778 16.336 21.4533 15.6527 22.3383 15.6441C23.2147 15.6356 23.9329 16.321 23.9585 17.1838C23.9842 18.0678 23.2339 18.8216 22.3383 18.8109C21.464 18.8003 20.7778 18.1041 20.7778 17.2222V17.2243Z" fill="#FD6F00"/>
<path d="M57.0568 4.15131C57.4287 4.15131 57.8049 4.12355 58.1747 4.15771C58.9678 4.22818 59.5556 4.84105 59.6176 5.61834C59.6753 6.35292 59.2157 7.12808 58.4633 7.2199C57.4971 7.33522 56.4967 7.34162 55.5306 7.22631C54.7332 7.13021 54.3057 6.37214 54.3784 5.55855C54.4468 4.78126 55.0325 4.2111 55.8576 4.15344C56.2552 4.12568 56.6571 4.14917 57.0568 4.14917V4.15344V4.15131Z" fill="#FD6F00"/>
<path d="M28.2102 35.0699C27.5988 35.0699 26.9875 35.0955 26.3783 35.0635C25.4784 35.0144 24.8136 34.314 24.8179 33.4662C24.8221 32.6184 25.4869 31.9095 26.3911 31.8839C27.6373 31.8497 28.8878 31.8476 30.134 31.8839C31.051 31.9116 31.6859 32.6056 31.6816 33.4769C31.6773 34.346 31.0382 35.0165 30.1212 35.0614C29.4863 35.0934 28.8472 35.0678 28.2102 35.0678V35.0699Z" fill="black"/>
<path d="M28.3149 42.6037C28.8728 42.6037 29.4308 42.5909 29.9887 42.6059C31.0147 42.6358 31.6923 43.2913 31.6816 44.2224C31.6709 45.1193 31.0062 45.777 30.0271 45.7962C28.8322 45.8197 27.6373 45.8218 26.4424 45.7962C25.4933 45.7727 24.8029 45.0595 24.8157 44.184C24.8286 43.3063 25.5211 42.6507 26.483 42.6059C26.5365 42.6037 26.5899 42.6059 26.6434 42.6059C27.2013 42.6059 27.7592 42.6059 28.3171 42.6059L28.3149 42.6037Z" fill="black"/>
<path d="M28.3064 26.5261C28.9199 26.5261 29.5333 26.4984 30.1447 26.5325C31.0468 26.5838 31.6581 27.2159 31.6816 28.0594C31.7051 28.9071 31.1365 29.6204 30.2387 29.6673C28.937 29.7335 27.6266 29.7335 26.3248 29.6759C25.3929 29.6353 24.7751 28.89 24.8179 28.038C24.8585 27.2031 25.4848 26.5987 26.3868 26.5261C26.4403 26.5219 26.4937 26.5197 26.5472 26.5197C27.1328 26.5197 27.7207 26.5197 28.3064 26.5197C28.3064 26.5219 28.3064 26.524 28.3064 26.5261Z" fill="black"/>
<path d="M28.2102 40.4277C27.5967 40.4277 26.9811 40.4662 26.3719 40.4192C25.4271 40.3445 24.8008 39.6718 24.8157 38.8155C24.8285 37.9549 25.4784 37.2887 26.4189 37.2631C27.6437 37.2289 28.8728 37.2289 30.0977 37.2631C31.0425 37.2887 31.6752 37.9507 31.6838 38.824C31.6923 39.6718 31.113 40.2975 30.2088 40.4192C30.1297 40.4299 30.0506 40.4427 29.9694 40.4427C29.3837 40.4427 28.7959 40.4427 28.2102 40.4427C28.2102 40.4384 28.2102 40.432 28.2102 40.4277Z" fill="black"/>
<path d="M28.285 47.9849C28.8985 47.9849 29.512 47.9593 30.1233 47.9913C31.0297 48.0404 31.6474 48.6576 31.6795 49.4989C31.7158 50.3766 31.1237 51.092 30.1789 51.1368C28.9028 51.1966 27.6202 51.1966 26.3441 51.1389C25.4057 51.0962 24.7858 50.3723 24.8157 49.5182C24.8457 48.6576 25.4933 48.0298 26.4446 47.9892C27.0559 47.9614 27.6715 47.9849 28.2829 47.9871L28.285 47.9849Z" fill="black"/>
</g>
<defs>
<filter id="filter0_d_645_441" x="0" y="0" width="80" height="90" filterUnits="userSpaceOnUse" color-interpolation-filters="sRGB">
<feFlood flood-opacity="0" result="BackgroundImageFix"/>
<feColorMatrix in="SourceAlpha" type="matrix" values="0 0 0 0 0 0 0 0 0 0 0 0 0 0 0 0 0 0 127 0" result="hardAlpha"/>
<feOffset dy="4"/>
<feGaussianBlur stdDeviation="2"/>
<feComposite in2="hardAlpha" operator="out"/>
<feColorMatrix type="matrix" values="0 0 0 0 0 0 0 0 0 0 0 0 0 0 0 0 0 0 0.25 0"/>
<feBlend mode="normal" in2="BackgroundImageFix" result="effect1_dropShadow_645_441"/>
<feBlend mode="normal" in="SourceGraphic" in2="effect1_dropShadow_645_441" result="shape"/>
</filter>
<clipPath id="clip0_645_441">
<rect width="72" height="82" fill="white" transform="translate(4)"/>
</clipPath>
</defs>
</svg>
